# xmcd CD database file
#
# Track frame offsets:
#	150
#	11517
#	25842
#	38924
#	52168
#	67650
#	81566
#	96097
#	108575
#	123647
#	136341
#	148308
#	159019
#	169890
#	185410
#	196471
#	210464
#	221174
#	232872
#	246536
#	259501
#	271375
#	285602
#	300216
#	318819
#	329279
#
# Disc length: 4589 seconds
#
# Revision: 0
# Processed by: cddbd v1.5.2PL0 Copyright (c) Steve Scherf et al.
# Submitted via: CDex 1.51
#
DISCID=7711eb1a
DTITLE=Django Reinhardt - 24 Classic Recordings
DYEAR=2013
DGENRE=Jazz
TTITLE0=Exactly like you (Jimmy McHugh - Dorothy Fields)
TTITLE1=Solitude (Duke Ellington - Irving Mills - Eddie Delange)
TTITLE2=Ain't misbehavin' (Fats Waller - Andy Razaf)
TTITLE3=Runnin' wild (Wood - Gibbs - Grey)
TTITLE4=Body and soul (Green - Heyman - Sour - Eyton)
TTITLE5=Hot lips (Busse - Lange - Davis)
TTITLE6=When day is done (Robert Katscher - Buddy De Sylva)
TTITLE7=Rose room (Art Hickman - Harry Williams)
TTITLE8=Liebestraum No. 3 (Franz Liszt)
TTITLE9=Miss Annabelle Lee (Clarke - Richmond - Pollack)
TTITLE10=Tears (Django Reinhardt - Stèphane Grapelli)
TTITLE11=Mystery Pacific (Django Reinhardt - Stèphane Grapelli)
TTITLE12=Swing Guitars (Django Reinhardt)
TTITLE13=Big boy blues (Frank Goudie)
TTITLE14=Montmartre (Rex Stewart)
TTITLE15=Solid old man [solid rock] (Rex Stewart)
TTITLE16=Finesse [night wind] (Billy Taylor Sr.)
TTITLE17=I know that you know (Vincent Youmans - Ann Caldwell)
TTITLE18=Low cotton (Rex Stewart - Barney Bigard - Billy Taylor Sr.)
TTITLE19=Swinging with Django (Django Reinhardt - Stèphane Grapelli)
TTITLE20=Paramount stomp (Django Reinhardt - Stèphane Grapelli)
TTITLE21=Japanese sandman (Raymond Egan - Richard Whiting)
TTITLE22=Minor swing (Django Reinhardt - Stèphane Grapelli)
TTITLE23=Bolero (Django Reinhardt)
TTITLE24=Douce ambiance (Django Reinhardt)
TTITLE25=Manior de mes rêves (Django Reinhardt)
EXTD=YEAR: 2013
EXTT0=
EXTT1=
EXTT2=
EXTT3=
EXTT4=
EXTT5=
EXTT6=
EXTT7=
EXTT8=
EXTT9=
EXTT10=
EXTT11=
EXTT12=
EXTT13=
EXTT14=
EXTT15=
EXTT16=
EXTT17=
EXTT18=
EXTT19=
EXTT20=
EXTT21=
EXTT22=
EXTT23=
EXTT24=
EXTT25=
PLAYORDER=
